# xmcd
#
# Track frame offsets:
#	150
#	27085
#	45390
#	65042
#	79815
#	96552
#	116225
#	140555
#	157032
#	179547
#
# Disc length: 2562 seconds
#
# Revision: 0
# Processed by: cddbd v1.4PL0 Copyright (c) Steve Scherf et al.
# Submitted via: EasyCDDAExtractor 4.6.9.1
#
DISCID=8f0a000a
DTITLE=Walt Mills - Behold the Glory
DYEAR=1900
DGENRE=
TTITLE0=Behold the Glory
TTITLE1=The Meeting in the Air
TTITLE2=When I Think About Calvary
TTITLE3=Then's the Time to Trust the Lord
TTITLE4=Living, He Loved Me
TTITLE5=This Is Just What Heaven Means To Me
TTITLE6=I've Come to Worship You
TTITLE7=There'll Be No Dying
TTITLE8=Calvary's the Reason Why
TTITLE9=We've Had Enough
EXTD=
EXTT0=
EXTT1=
EXTT2=
EXTT3=
EXTT4=
EXTT5=
EXTT6=
EXTT7=
EXTT8=
EXTT9=
PLAYORDER=
